<svg xmlns="http://www.w3.org/2000/svg" viewBox="0 0 200 40" fill="none" stroke="#5b7d74" stroke-width="1.2" stroke-linecap="round" stroke-linejoin="round">
<path d="M 100 20 C 70 16 36 16 8 20"/>
<path d="M 83.5 18.2 Q 81.4 9.0 72.1 7.0 Q 74.2 16.2 83.5 18.2"/>
<path d="M 64.9 17.2 Q 56.7 18.0 54.1 25.7 Q 62.2 24.9 64.9 17.2"/>
<path d="M 46.2 17.1 Q 44.0 10.6 37.2 9.8 Q 39.4 16.3 46.2 17.1"/>
<path d="M 27.9 17.9 Q 22.5 19.0 21.3 24.3 Q 26.7 23.2 27.9 17.9"/>
<path d="M 10.5 19.7 Q 8.8 15.9 4.6 15.9 Q 6.4 19.7 10.5 19.7"/>
<path d="M 8.0 20.0 Q 2.6 17.5 -1.9 21.4 Q 3.5 23.9 8.0 20.0"/>
<path d="M 100 20 C 130 16 164 16 192 20"/>
<path d="M 116.5 18.2 Q 120.1 27.0 129.6 27.5 Q 126.0 18.7 116.5 18.2"/>
<path d="M 135.1 17.2 Q 143.2 15.9 145.4 8.0 Q 137.3 9.3 135.1 17.2"/>
<path d="M 153.8 17.1 Q 155.7 23.6 162.5 24.6 Q 160.6 18.1 153.8 17.1"/>
<path d="M 172.1 17.9 Q 177.6 17.6 179.6 12.5 Q 174.1 12.8 172.1 17.9"/>
<path d="M 189.5 19.7 Q 190.2 23.7 194.2 24.8 Q 193.5 20.7 189.5 19.7"/>
<path d="M 192.0 20.0 Q 196.5 23.9 201.9 21.4 Q 197.4 17.5 192.0 20.0"/>
<circle cx="100" cy="20" r="2.2" fill="#5b7d74" stroke="none"/>
</svg>