<svg xmlns="http://www.w3.org/2000/svg" viewBox="0 0 190 100" fill="none" stroke="#5b7d74" stroke-width="1.4" stroke-linecap="round" stroke-linejoin="round">
<path d="M 10 90 C 40 40 120 30 180 18"/>
<path d="M 22.8 73.7 Q 39.2 80.7 52.4 68.7 Q 36.1 61.7 22.8 73.7"/>
<path d="M 47.0 55.6 Q 60.1 47.2 58.0 31.8 Q 44.9 40.2 47.0 55.6"/>
<path d="M 76.3 42.3 Q 85.2 52.2 97.9 48.4 Q 89.0 38.4 76.3 42.3"/>
<path d="M 108.7 32.6 Q 119.3 29.4 120.8 18.5 Q 110.2 21.7 108.7 32.6"/>
<path d="M 142.2 25.3 Q 146.9 32.7 155.6 31.4 Q 150.9 24.0 142.2 25.3"/>
<path d="M 174.5 19.1 Q 180.9 17.5 182.1 11.1 Q 175.8 12.7 174.5 19.1"/>
<path d="M 180.0 18.0 Q 187.7 21.0 193.7 15.3 Q 186.0 12.2 180.0 18.0"/>
</svg>